<svg width="1466" height="683" viewBox="0 0 1466 683" fill="none" xmlns="http://www.w3.org/2000/svg">
<path d="M239.058 486.385C239.058 504.154 236.17 520.424 230.395 535.195C224.62 549.854 216.457 562.459 205.906 573.01C195.467 583.559 182.861 591.778 168.09 597.664C153.43 603.439 137.104 606.327 119.112 606.327H28.4868V366.444H119.112C137.104 366.444 153.43 369.386 168.09 375.273C182.861 381.047 195.467 389.21 205.906 399.761C216.457 410.311 224.62 422.971 230.395 437.742C236.17 452.402 239.058 468.615 239.058 486.385ZM199.243 486.385C199.243 472.614 197.354 460.231 193.578 449.237C189.913 438.242 184.583 428.968 177.586 421.417C170.7 413.865 162.315 408.09 152.43 404.092C142.546 399.982 131.44 397.928 119.112 397.928H67.6357V574.842H119.112C131.44 574.842 142.546 572.843 152.43 568.845C162.315 564.847 170.7 559.071 177.586 551.52C184.583 543.857 189.913 534.583 193.578 523.7C197.354 512.706 199.243 500.267 199.243 486.385ZM512.681 486.385C512.681 504.154 509.793 520.535 504.018 535.528C498.243 550.521 490.08 563.458 479.529 574.342C469.09 585.114 456.484 593.554 441.713 599.663C427.053 605.771 410.727 608.825 392.735 608.825C374.854 608.825 358.528 605.771 343.758 599.663C329.098 593.554 316.493 585.114 305.941 574.342C295.39 563.458 287.227 550.521 281.453 535.528C275.678 520.535 272.79 504.154 272.79 486.385C272.79 468.615 275.678 452.235 281.453 437.242C287.227 422.25 295.39 409.311 305.941 398.428C316.493 387.544 329.098 379.048 343.758 372.941C358.528 366.832 374.854 363.778 392.735 363.778C410.727 363.778 427.053 366.832 441.713 372.941C456.484 379.048 469.09 387.544 479.529 398.428C490.08 409.311 498.243 422.25 504.018 437.242C509.793 452.235 512.681 468.615 512.681 486.385ZM472.866 486.385C472.866 472.614 470.977 460.231 467.202 449.237C463.537 438.242 458.206 428.913 451.209 421.25C444.323 413.587 435.938 407.701 426.054 403.592C416.169 399.483 405.063 397.429 392.735 397.429C380.518 397.429 369.468 399.483 359.584 403.592C349.699 407.701 341.259 413.587 334.262 421.25C327.265 428.913 321.878 438.242 318.103 449.237C314.327 460.231 312.439 472.614 312.439 486.385C312.439 500.267 314.327 512.706 318.103 523.7C321.878 534.695 327.265 544.024 334.262 551.687C341.259 559.238 349.699 565.068 359.584 569.178C369.468 573.176 380.518 575.175 392.735 575.175C405.063 575.175 416.169 573.176 426.054 569.178C435.938 565.068 444.323 559.238 451.209 551.687C458.206 544.024 463.537 534.695 467.202 523.7C470.977 512.706 472.866 500.267 472.866 486.385ZM655.345 574.842C664.563 574.842 672.781 573.287 680.001 570.178C687.331 567.067 693.494 562.736 698.492 557.184C703.601 551.631 707.488 544.967 710.154 537.194C712.819 529.308 714.152 520.59 714.152 511.04V366.444H752.967V511.04C752.967 525.144 750.691 538.193 746.137 550.187C741.695 562.182 735.253 572.565 726.813 581.339C718.372 590.001 708.099 596.831 695.993 601.829C683.999 606.715 670.449 609.159 655.345 609.159C640.241 609.159 626.636 606.715 614.53 601.829C602.536 596.831 592.318 590.001 583.878 581.339C575.437 572.565 568.94 562.182 564.387 550.187C559.944 538.193 557.723 525.144 557.723 511.04V366.444H596.705V510.873C596.705 520.424 598.038 529.142 600.703 537.027C603.369 544.801 607.2 551.52 612.198 557.184C617.196 562.736 623.304 567.067 630.523 570.178C637.853 573.287 646.127 574.842 655.345 574.842ZM977.447 398.928H902.648V606.327H863.832V398.928H788.87V366.444H977.447V398.928ZM1232.13 486.385C1232.13 504.154 1229.24 520.535 1223.47 535.528C1217.69 550.521 1209.52 563.458 1198.98 574.342C1188.53 585.114 1175.93 593.554 1161.16 599.663C1146.5 605.771 1130.18 608.825 1112.19 608.825C1094.3 608.825 1077.98 605.771 1063.21 599.663C1048.55 593.554 1035.94 585.114 1025.39 574.342C1014.84 563.458 1006.68 550.521 1000.9 535.528C995.122 520.535 992.24 504.154 992.24 486.385C992.24 468.615 995.122 452.235 1000.9 437.242C1006.68 422.25 1014.84 409.311 1025.39 398.428C1035.94 387.544 1048.55 379.048 1063.21 372.941C1077.98 366.832 1094.3 363.778 1112.19 363.778C1130.18 363.778 1146.5 366.832 1161.16 372.941C1175.93 379.048 1188.53 387.544 1198.98 398.428C1209.52 409.311 1217.69 422.25 1223.47 437.242C1229.24 452.235 1232.13 468.615 1232.13 486.385ZM1192.32 486.385C1192.32 472.614 1190.43 460.231 1186.65 449.237C1182.99 438.242 1177.66 428.913 1170.66 421.25C1163.77 413.587 1155.38 407.701 1145.5 403.592C1135.62 399.483 1124.51 397.429 1112.19 397.429C1099.97 397.429 1088.91 399.483 1079.03 403.592C1069.15 407.701 1060.71 413.587 1053.71 421.25C1046.72 428.913 1041.33 438.242 1037.55 449.237C1033.77 460.231 1031.89 472.614 1031.89 486.385C1031.89 500.267 1033.77 512.706 1037.55 523.7C1041.33 534.695 1046.72 544.024 1053.71 551.687C1060.71 559.238 1069.15 565.068 1079.03 569.178C1088.91 573.176 1099.97 575.175 1112.19 575.175C1124.51 575.175 1135.62 573.176 1145.5 569.178C1155.38 565.068 1163.77 559.238 1170.66 551.687C1177.66 544.024 1182.99 534.695 1186.65 523.7C1190.43 512.706 1192.32 500.267 1192.32 486.385ZM1349.8 481.388C1358.69 481.388 1366.46 480.332 1373.13 478.222C1379.79 476.001 1385.34 472.947 1389.78 469.06C1394.23 465.173 1397.56 460.564 1399.78 455.234C1402 449.791 1403.11 443.794 1403.11 437.242C1403.11 424.137 1398.78 414.142 1390.12 407.257C1381.45 400.371 1368.35 396.929 1350.8 396.929H1319.15V481.388H1349.8ZM1462.75 606.327H1427.93C1421.05 606.327 1416.06 603.661 1412.94 598.331L1356.97 517.537C1355.08 514.76 1353.03 512.761 1350.8 511.54C1348.59 510.318 1345.25 509.707 1340.81 509.707H1319.15V606.327H1280.17V366.444H1350.8C1366.58 366.444 1380.12 368.054 1391.45 371.275C1402.9 374.495 1412.27 379.104 1419.6 385.101C1426.93 390.987 1432.32 398.095 1435.76 406.424C1439.32 414.753 1441.09 424.026 1441.09 434.244C1441.09 442.573 1439.82 450.347 1437.26 457.566C1434.82 464.784 1431.22 471.337 1426.43 477.223C1421.77 483.108 1416 488.218 1409.11 492.549C1402.23 496.88 1394.4 500.267 1385.62 502.71C1390.4 505.597 1394.51 509.651 1397.95 514.871L1462.75 606.327Z" fill="#377EF2"/>
<path d="M392.229 81.2939C402.002 81.294 411.109 82.0712 419.549 83.626C428.101 85.1811 435.987 87.3469 443.205 90.123C450.535 92.7884 457.199 96.0639 463.196 99.9512C469.193 103.838 474.691 108.114 479.688 112.778L466.861 133.102C464.862 136.322 462.252 138.321 459.031 139.099C455.811 139.765 452.313 138.932 448.536 136.6C444.871 134.49 441.206 132.379 437.541 130.27C433.876 128.16 429.767 126.328 425.213 124.772C420.771 123.217 415.718 121.941 410.054 120.941C404.501 119.942 398.059 119.441 390.729 119.441C378.846 119.441 368.072 121.44 358.41 125.438C348.859 129.437 340.696 135.156 333.921 142.597C327.147 150.037 321.927 158.978 318.262 169.417C314.597 179.856 312.765 191.518 312.765 204.4C312.765 218.171 314.708 230.498 318.595 241.382C322.593 252.154 328.146 261.317 335.254 268.869C342.473 276.31 351.136 282.029 361.242 286.027C371.349 289.915 382.622 291.857 395.061 291.857C403.946 291.857 411.886 290.914 418.883 289.025C425.88 287.137 432.709 284.583 439.373 281.362V237.718H409.054C406.167 237.718 403.89 236.94 402.224 235.385C400.669 233.719 399.892 231.72 399.892 229.388V204.067H479.855V301.52C467.639 310.515 454.589 317.122 440.706 321.343C426.935 325.452 412.164 327.507 396.393 327.507C376.735 327.507 358.91 324.453 342.917 318.345C327.036 312.237 313.431 303.741 302.103 292.857C290.886 281.974 282.223 268.979 276.114 253.876C270.006 238.773 266.952 222.281 266.952 204.4C266.952 186.298 269.896 169.694 275.781 154.591C281.668 139.488 289.997 126.494 300.77 115.61C311.654 104.726 324.815 96.2861 340.252 90.2891C355.69 84.292 373.016 81.2939 392.229 81.2939ZM263.503 324.842H228.853C224.965 324.842 221.8 323.898 219.356 322.01C216.913 320.011 215.08 317.567 213.859 314.68L195.867 265.537H96.0791L78.0879 314.68C77.1994 317.234 75.4772 319.567 72.9229 321.677C70.3686 323.786 67.2035 324.842 63.4277 324.842H28.4434L123.233 83.959H168.88L263.503 324.842ZM674.962 119.608H568.011V186.409H652.306V220.893H568.011V289.025H674.962V324.842H523.031V83.959H674.962V119.608ZM738.165 83.959C740.052 83.959 741.663 84.0696 742.996 84.292C744.44 84.4028 745.662 84.7364 746.661 85.292C747.771 85.7359 748.827 86.4577 749.826 87.457C750.826 88.3457 751.936 89.567 753.158 91.1221L879.434 252.377C879.1 248.49 878.825 244.658 878.601 240.883C878.376 237.107 878.268 233.609 878.268 230.388V83.959H917.749V324.842H894.76C891.203 324.842 888.204 324.286 885.764 323.176C883.431 321.954 881.158 319.955 878.934 317.179L753.158 156.59C753.825 163.92 754.158 170.695 754.158 176.914V324.842H714.676V83.959H738.165ZM1063.18 83.959C1081.51 83.959 1098.17 86.958 1113.16 92.9551C1128.15 98.8414 1140.98 107.115 1151.64 117.776C1162.3 128.327 1170.58 140.988 1176.46 155.758C1182.35 170.528 1185.29 186.742 1185.29 204.4C1185.29 222.058 1182.35 238.273 1176.46 253.043C1170.58 267.813 1162.3 280.53 1151.64 291.191C1140.98 301.853 1128.15 310.126 1113.16 316.013C1098.17 321.899 1081.51 324.842 1063.18 324.842H971.392V165.284H1016.37V289.192H1063.18C1074.96 289.192 1085.51 287.249 1094.84 283.361C1104.28 279.474 1112.28 273.922 1118.82 266.703C1125.49 259.373 1130.54 250.489 1133.98 240.05C1137.54 229.499 1139.32 217.616 1139.32 204.4C1139.32 191.184 1137.54 179.357 1133.98 168.918C1130.54 158.367 1125.49 149.483 1118.82 142.264C1112.28 134.934 1104.28 129.326 1094.84 125.438C1085.51 121.551 1074.96 119.608 1063.18 119.608H1026.03V119.57H971.392V83.959H1063.18ZM1423.79 324.842H1389.13C1385.25 324.842 1382.08 323.898 1379.64 322.01C1377.19 320.011 1375.36 317.567 1374.14 314.68L1356.15 265.537H1256.36L1238.37 314.68C1237.48 317.234 1235.75 319.567 1233.21 321.677C1230.65 323.787 1227.48 324.842 1223.71 324.842H1188.73L1283.52 83.959H1329.16L1423.79 324.842ZM145.891 125.272C144.446 130.936 142.947 136.267 141.393 141.265C139.837 146.151 138.338 150.427 136.895 154.092L107.741 233.886H184.373L155.053 153.759C153.608 150.205 152.109 145.984 150.555 141.098C149 136.211 147.445 130.936 145.891 125.272ZM1306.17 125.272C1304.72 130.936 1303.22 136.267 1301.67 141.265C1300.12 146.151 1298.62 150.427 1297.18 154.092L1268.02 233.886H1344.66L1315.33 153.759C1313.89 150.205 1312.39 145.984 1310.84 141.098C1309.28 136.211 1307.72 130.936 1306.17 125.272Z" fill="white"/>
<path d="M1017.81 83.9598H904.014V119.571H1017.81V83.9598Z" fill="white"/>
</svg>
